<?xml version="1.0" standalone="no"?>
<!DOCTYPE svg PUBLIC "-//W3C//DTD SVG 20010904//EN"
 "http://www.w3.org/TR/2001/REC-SVG-20010904/DTD/svg10.dtd">
<svg version="1.0" xmlns="http://www.w3.org/2000/svg"
 width="1003.000000pt" height="1003.000000pt" viewBox="0 0 1003.000000 1003.000000"
 preserveAspectRatio="xMidYMid meet">
<metadata>
Created by potrace 1.11, written by Peter Selinger 2001-2013
</metadata>
<g transform="translate(0.000000,1003.000000) scale(0.100000,-0.100000)"
fill="#000000" stroke="none">
<path d="M2616 8581 c-3 -5 -17 -6 -31 -3 -17 3 -25 0 -25 -9 0 -15 -38 -66
-85 -113 -16 -17 -30 -33 -30 -36 0 -13 -32 -49 -38 -43 -4 3 -7 -1 -7 -9 0
-9 -7 -19 -16 -22 -9 -4 -14 -9 -11 -12 3 -4 -9 -21 -27 -38 -18 -18 -35 -40
-39 -49 -3 -9 -14 -17 -22 -17 -9 0 -14 -3 -12 -7 7 -11 -19 -33 -29 -25 -4 4
-4 2 -1 -5 4 -6 0 -18 -8 -26 -8 -9 -15 -21 -15 -27 0 -6 -4 -8 -10 -5 -5 3
-10 -1 -10 -10 0 -9 -4 -13 -10 -10 -5 3 -10 1 -10 -5 0 -7 -16 -27 -35 -46
-19 -18 -35 -37 -36 -41 0 -14 -77 -92 -83 -86 -3 4 -6 -1 -6 -10 0 -14 -33
-54 -107 -130 -16 -16 -28 -32 -28 -35 1 -7 -37 -50 -105 -121 -19 -20 -46
-53 -60 -73 -13 -20 -28 -34 -33 -31 -5 3 -7 -1 -5 -9 2 -8 -18 -34 -44 -58
-27 -24 -48 -47 -48 -52 0 -4 -15 -22 -32 -39 -18 -17 -33 -34 -34 -37 -2 -19
-18 -42 -28 -42 -6 0 -18 -10 -26 -21 -8 -12 -30 -37 -47 -55 -18 -18 -33 -40
-33 -49 0 -9 -4 -13 -10 -10 -5 3 -10 0 -10 -8 0 -8 -7 -18 -16 -21 -8 -3 -12
-10 -9 -16 3 -6 -1 -13 -9 -16 -21 -8 -14 -43 11 -64 11 -9 24 -26 27 -38 4
-12 14 -22 22 -22 8 0 14 -6 14 -14 0 -8 20 -35 45 -60 25 -26 45 -51 45 -56
0 -6 5 -10 11 -10 5 0 8 -3 6 -7 -7 -11 19 -33 29 -25 4 4 4 -1 1 -11 -4 -11
-1 -20 8 -23 8 -4 15 -12 15 -18 0 -7 11 -23 25 -36 13 -12 23 -26 22 -29 -3
-6 41 -52 59 -61 5 -3 8 -9 6 -14 -2 -5 4 -16 13 -26 8 -9 12 -20 9 -23 -4 -4
1 -9 10 -13 9 -3 16 -12 16 -18 0 -7 16 -29 35 -50 19 -21 33 -42 30 -46 -3
-4 2 -10 10 -14 8 -3 15 -12 15 -21 0 -8 3 -15 8 -15 4 0 8 -11 8 -25 1 -13 9
-32 18 -40 9 -9 13 -21 10 -27 -4 -6 -2 -13 4 -17 6 -3 12 -13 14 -21 2 -8 9
-21 16 -28 7 -8 10 -17 7 -22 -3 -4 2 -11 11 -14 9 -4 14 -13 10 -21 -3 -8 -1
-15 5 -15 11 0 50 -80 43 -91 -2 -4 3 -12 11 -19 8 -7 15 -18 15 -24 0 -21 25
-66 36 -66 6 0 10 -11 9 -24 -2 -15 3 -27 12 -30 9 -4 13 -13 9 -22 -3 -8 1
-22 9 -31 8 -8 13 -19 10 -24 -4 -5 1 -9 10 -9 11 0 15 -5 11 -15 -3 -8 1 -21
9 -29 8 -8 16 -24 18 -35 2 -11 6 -24 10 -27 4 -4 7 -15 7 -24 0 -10 7 -23 16
-31 11 -9 15 -26 12 -56 -2 -24 1 -44 5 -46 11 -3 16 -50 17 -142 1 -38 6 -75
12 -82 13 -16 12 -127 -2 -131 -5 -2 -10 -25 -10 -52 0 -51 8 -83 19 -76 13 8
4 -82 -10 -98 -44 -52 -46 -53 -137 -51 -59 1 -96 -3 -116 -12 -24 -12 -30
-13 -37 -1 -5 7 -9 8 -9 3 0 -12 -118 -14 -136 -3 -6 4 -18 -2 -27 -13 -10
-11 -22 -17 -27 -14 -5 3 -25 -6 -45 -19 -20 -14 -46 -28 -57 -32 -11 -3 -42
-27 -68 -53 -54 -53 -138 -124 -151 -129 -5 -2 -9 -11 -9 -20 0 -8 -3 -12 -6
-9 -9 9 -45 -33 -38 -44 3 -5 1 -9 -5 -9 -6 0 -13 -11 -17 -25 -3 -13 -10 -23
-15 -22 -4 1 -24 -16 -44 -37 -29 -33 -35 -47 -35 -83 0 -25 -4 -52 -9 -62 -6
-10 -11 -80 -12 -157 -1 -76 -6 -142 -11 -145 -5 -3 -10 -24 -11 -45 -1 -27
-9 -46 -25 -62 -13 -12 -20 -27 -17 -32 3 -6 2 -10 -3 -10 -20 0 -92 -154 -92
-197 0 -13 -4 -23 -10 -23 -5 0 -10 -13 -10 -30 0 -16 -4 -30 -8 -30 -12 0
-13 -9 -14 -135 -2 -117 1 -155 14 -155 4 0 8 -12 8 -26 0 -14 3 -23 8 -21 4
3 21 -22 37 -55 17 -33 40 -71 53 -85 12 -13 22 -28 22 -34 0 -5 5 -9 11 -9 5
0 8 -4 5 -9 -3 -5 9 -22 28 -37 18 -16 41 -45 51 -64 21 -40 42 -59 68 -60 10
0 16 -4 13 -8 -3 -5 6 -15 19 -22 14 -7 25 -17 25 -22 0 -4 8 -8 18 -8 9 0 41
-23 70 -50 29 -28 57 -50 63 -50 5 0 7 -5 3 -12 -5 -8 -2 -9 9 -5 11 4 17 1
17 -9 0 -8 4 -13 9 -10 4 3 17 -1 27 -9 10 -8 27 -15 37 -15 10 0 15 -4 12
-10 -3 -5 1 -10 9 -10 9 0 16 -5 16 -12 0 -6 3 -8 6 -5 4 3 15 2 25 -4 14 -7
19 -6 19 3 0 8 5 6 11 -4 5 -10 21 -18 34 -18 14 0 25 -4 25 -10 0 -5 9 -10
20 -10 11 0 20 -4 20 -10 0 -5 5 -10 11 -10 6 0 22 -14 36 -31 17 -20 32 -29
45 -26 10 3 25 -1 33 -10 8 -8 15 -11 15 -7 0 3 7 1 15 -6 8 -7 15 -9 15 -6 0
4 7 0 16 -8 8 -9 20 -13 26 -10 6 4 14 1 18 -6 4 -7 19 -12 34 -12 14 0 26 -5
26 -10 0 -5 4 -7 9 -4 5 4 12 0 14 -6 4 -10 6 -10 6 0 1 10 5 10 17 -2 8 -9
26 -16 40 -16 13 0 24 -4 24 -10 0 -5 16 -10 35 -10 19 0 35 -5 35 -11 0 -7
12 -10 28 -7 16 2 34 -2 41 -10 8 -7 22 -12 32 -9 10 3 23 -1 30 -9 6 -8 24
-14 40 -14 16 0 29 -3 29 -8 0 -4 19 -8 42 -9 22 -1 44 -6 47 -11 10 -14 41
-22 41 -11 0 7 11 4 26 -6 14 -9 34 -15 44 -12 11 3 21 -1 24 -9 3 -8 18 -14
34 -14 16 0 32 -3 36 -7 3 -4 14 -8 24 -9 26 -4 95 -25 114 -35 10 -5 29 -9
43 -9 14 0 25 -4 25 -9 0 -5 12 -9 26 -9 15 0 29 -3 33 -8 3 -5 15 -11 26 -12
11 -2 23 -9 26 -14 4 -6 12 -7 18 -4 6 4 13 1 16 -6 3 -8 20 -15 38 -16 17 -2
34 -7 35 -12 2 -6 21 -10 43 -10 21 0 39 -5 39 -10 0 -6 6 -10 13 -9 38 5 67
-2 67 -17 0 -9 5 -12 12 -8 20 13 48 12 48 -1 0 -7 21 -12 56 -13 33 0 60 -6
64 -13 5 -6 15 -9 24 -6 8 3 18 2 21 -4 4 -5 11 -7 16 -4 5 4 9 2 9 -3 0 -5
12 -9 26 -9 15 0 29 -4 33 -9 3 -5 15 -10 26 -12 30 -4 98 -23 117 -33 10 -5
27 -9 38 -9 11 0 28 -4 38 -9 34 -18 101 -34 121 -28 11 2 22 -1 24 -8 3 -7
24 -11 54 -11 26 1 53 -4 60 -10 7 -7 29 -12 49 -12 20 0 39 -5 43 -10 4 -6
15 -10 26 -8 21 3 92 -17 138 -40 18 -9 27 -10 27 -2 0 6 8 4 18 -5 10 -10 25
-17 34 -17 8 0 23 -9 33 -20 10 -11 29 -20 42 -20 14 0 21 -4 18 -10 -3 -5 0
-10 7 -10 7 0 19 -9 26 -20 7 -12 17 -18 21 -15 5 2 11 -2 15 -10 3 -8 12 -15
21 -15 8 0 15 -4 15 -10 0 -5 7 -10 15 -10 8 0 15 -5 15 -11 0 -6 7 -8 15 -5
9 3 18 -1 21 -9 4 -8 10 -12 15 -9 5 3 9 -1 9 -9 0 -8 20 -25 45 -38 25 -13
45 -28 45 -32 0 -5 5 -5 10 -2 6 3 13 -1 16 -9 3 -9 15 -16 25 -16 10 0 19 -4
19 -10 0 -5 7 -10 15 -10 8 0 15 -4 15 -8 0 -4 11 -8 25 -8 14 0 25 3 25 6 0
10 52 32 58 25 3 -2 12 4 19 15 8 11 18 18 23 15 4 -3 10 0 12 5 2 6 13 12 26
13 12 0 22 8 22 15 0 9 6 12 15 8 9 -3 18 1 21 9 4 8 10 12 15 9 5 -3 9 2 9
10 0 10 6 13 15 9 9 -3 24 2 34 11 10 9 20 13 24 10 3 -3 18 5 33 19 15 14 31
24 35 22 4 -3 12 2 19 10 7 8 16 13 20 10 4 -3 13 2 20 10 6 7 18 11 26 8 7
-3 16 2 20 10 3 9 11 14 18 11 6 -2 21 5 33 16 12 11 31 20 43 20 11 0 20 5
20 10 0 6 12 10 26 10 14 0 23 4 19 10 -3 6 0 10 7 11 33 2 63 10 66 19 2 6 8
7 13 4 6 -3 16 0 24 6 8 6 26 13 41 15 14 1 29 7 33 12 3 6 14 9 24 7 9 -1 17
4 17 12 0 10 8 13 30 9 20 -4 36 0 46 9 8 8 23 13 33 11 11 -2 25 3 31 10 6 8
17 12 25 9 7 -3 16 0 20 5 3 6 11 9 16 6 5 -4 9 -2 9 4 0 6 7 8 16 4 9 -3 19
-1 23 5 3 5 22 12 41 14 19 1 37 6 40 10 3 4 19 9 35 12 17 2 31 5 33 6 1 2 5
3 10 4 4 1 12 5 19 9 6 4 18 4 27 1 9 -3 16 -1 16 6 0 6 5 8 10 5 6 -3 10 -2
10 4 0 5 9 8 19 6 11 -2 25 2 31 10 6 8 23 11 41 8 17 -2 37 1 45 8 8 7 33 12
55 11 27 -1 41 3 45 13 4 8 10 13 14 10 4 -3 20 1 35 9 15 8 34 12 41 9 8 -3
20 0 28 6 8 6 28 13 45 14 17 1 31 5 31 10 0 4 9 7 19 7 11 0 27 7 35 16 10
10 16 11 16 3 0 -8 3 -9 14 0 7 6 21 9 30 5 9 -4 16 -1 16 6 0 7 7 10 15 6 8
-3 18 1 22 9 5 8 17 16 28 18 11 1 25 6 31 10 6 3 26 8 45 9 19 1 36 5 39 10
3 4 21 8 39 10 18 1 35 6 37 10 3 4 14 8 25 8 11 0 17 5 14 10 -3 6 5 10 19
10 13 0 31 7 39 15 9 8 17 11 19 6 2 -5 26 -2 53 8 56 20 54 19 94 27 16 4 32
12 35 19 3 8 13 11 27 8 15 -4 20 -3 15 5 -7 12 4 16 36 13 9 -1 19 3 23 9 3
5 17 10 30 10 13 0 27 5 30 10 3 6 15 10 25 10 10 0 25 6 32 13 7 8 18 12 25
10 6 -2 14 1 18 6 3 6 15 11 26 11 10 0 19 5 19 10 0 6 9 10 20 10 11 0 20 5
20 10 0 6 9 10 20 10 11 0 23 6 26 14 3 8 11 13 18 10 7 -3 25 2 41 10 16 8
33 12 38 9 5 -3 13 0 17 6 4 7 17 13 28 14 12 1 22 5 22 9 0 4 9 8 21 8 11 0
27 6 34 13 34 29 52 41 85 52 33 11 60 26 60 33 0 5 11 7 24 5 14 -3 34 2 46
10 12 9 29 13 36 10 8 -3 14 0 14 6 0 6 9 11 20 11 11 0 20 5 20 10 0 6 9 10
19 10 11 0 23 5 26 10 3 6 15 10 27 10 24 0 71 32 119 82 20 21 41 38 48 38 7
0 9 5 6 10 -3 6 -1 10 5 10 23 0 175 172 175 198 -1 9 4 20 10 24 5 4 10 12
10 18 0 6 6 15 14 19 8 6 12 18 8 31 -3 13 0 23 9 27 8 3 14 11 14 19 0 8 5
14 10 14 6 0 10 8 10 19 0 10 7 24 15 31 8 7 15 21 15 31 0 19 3 27 34 86 9
18 14 33 9 33 -4 0 -2 4 6 9 8 5 13 27 13 57 1 28 7 56 16 66 8 10 12 24 9 31
-3 8 0 20 6 26 9 9 8 11 -5 6 -10 -4 -18 -3 -19 1 -2 30 -11 59 -20 70 -6 7
-8 17 -5 23 4 5 -1 16 -9 24 -8 9 -15 29 -15 46 0 17 -4 31 -10 31 -5 0 -10
13 -10 29 0 16 -7 34 -15 41 -8 7 -15 28 -15 46 0 19 -4 34 -10 34 -5 0 -10 8
-10 18 0 10 -7 28 -16 40 -8 12 -12 22 -7 22 4 0 2 4 -4 8 -7 4 -14 17 -16 27
-2 11 -9 30 -15 43 -7 12 -10 26 -7 31 3 5 -1 16 -8 23 -8 8 -13 27 -13 43 1
17 -4 46 -12 65 -8 19 -15 40 -16 47 -1 7 -5 16 -9 19 -4 4 -7 16 -7 26 0 11
-6 29 -12 41 -7 12 -13 33 -14 47 -1 14 -2 30 -3 36 -1 6 -12 28 -26 48 -13
20 -22 36 -18 36 3 0 -4 8 -15 19 -12 10 -19 21 -15 25 3 3 1 6 -6 6 -7 0 -10
4 -7 9 3 5 -1 11 -9 15 -8 3 -15 10 -15 16 0 6 -11 21 -25 34 -13 13 -22 26
-18 30 4 4 0 4 -9 1 -9 -4 -18 0 -21 9 -4 9 -13 16 -20 16 -17 0 -49 34 -40
43 3 4 -1 7 -10 7 -10 0 -17 5 -17 11 0 5 -4 7 -10 4 -5 -3 -10 -1 -10 6 0 7
-3 9 -7 6 -3 -4 -15 0 -25 10 -10 9 -18 13 -18 9 0 -5 -16 6 -36 23 -19 17
-39 29 -45 26 -5 -4 -9 0 -9 7 0 9 -3 9 -10 -2 -5 -8 -10 -10 -10 -5 0 6 -12
12 -26 13 -15 1 -33 7 -40 13 -11 9 -14 8 -14 -2 0 -9 -3 -10 -8 -4 -4 6 -18
10 -32 11 -14 0 -44 6 -68 13 -23 6 -46 9 -51 7 -5 -3 -14 0 -19 7 -8 9 -49
13 -149 12 -176 0 -174 -2 -174 145 0 62 8 134 18 160 5 14 9 48 8 75 -1 28 3
59 9 70 7 11 11 34 10 50 0 17 6 38 14 48 8 9 11 17 7 17 -4 0 0 9 10 19 12
14 16 32 14 64 -3 27 1 49 9 56 6 7 12 23 12 36 0 13 5 36 11 52 7 15 13 38
15 51 1 13 7 29 12 35 12 15 37 89 34 100 -1 4 3 14 10 22 24 27 34 40 37 50
16 47 45 109 54 116 5 3 9 12 11 20 1 8 7 24 14 35 6 12 8 24 5 28 -3 3 -1 6
5 6 6 0 14 10 18 22 3 12 12 28 18 35 29 33 36 43 29 43 -4 0 1 6 12 13 10 8
15 19 11 26 -4 6 0 14 9 17 9 4 14 13 11 21 -3 7 1 16 9 19 8 4 15 12 15 20 0
8 5 14 10 14 6 0 10 12 10 26 0 14 4 23 10 19 6 -3 10 1 10 9 0 9 4 16 9 16 5
0 13 10 17 22 3 12 15 31 25 42 11 11 19 25 19 32 0 6 7 15 16 18 8 3 12 10 9
16 -3 5 1 10 10 10 11 0 15 5 11 15 -3 8 -1 15 4 15 5 0 12 11 16 25 3 14 10
22 15 19 5 -3 9 1 9 8 0 8 6 20 13 26 6 7 12 16 12 21 0 4 14 25 30 46 40 50
95 107 95 98 0 -4 11 9 25 29 37 54 33 84 -17 133 -24 23 -63 66 -88 94 -64
74 -101 111 -113 111 -6 0 -8 3 -4 6 3 3 -5 18 -18 32 -13 14 -22 29 -19 34 3
4 0 8 -6 8 -12 0 -53 41 -79 78 -8 12 -18 19 -23 16 -4 -3 -8 0 -8 6 0 14 -25
40 -38 40 -5 0 -15 12 -23 27 -8 16 -34 49 -59 74 -71 72 -130 140 -130 150 0
5 -6 9 -14 9 -8 0 -17 8 -20 18 -4 11 -17 25 -31 32 -13 7 -22 17 -19 22 3 5
-9 21 -27 36 -17 15 -43 40 -58 56 -14 16 -41 45 -58 65 -18 20 -33 40 -33 45
0 4 -7 6 -15 2 -11 -4 -15 2 -15 20 0 14 -4 22 -10 19 -5 -3 -10 -2 -10 3 0 4
-29 39 -65 77 -36 37 -65 72 -65 76 0 5 -6 9 -13 9 -6 0 -18 14 -25 30 -8 17
-20 30 -28 30 -8 0 -14 8 -14 19 0 10 -7 24 -15 31 -8 7 -15 9 -15 4 0 -5 -8
3 -17 16 -27 38 -55 71 -88 102 l-29 28 -2264 2 c-1245 2 -2266 0 -2268 -4 -3
-4 -16 -3 -29 2 -13 5 -27 6 -29 1z"/>
</g>
</svg>
